<svg id="Layer_1" data-name="Layer 1" xmlns="http://www.w3.org/2000/svg" viewBox="0 0 300.2 89.6"><defs><style>.cls-1{fill:#d85040;}.cls-2,.cls-3{fill:#fff;}.cls-3{stroke:#fff;stroke-linecap:round;stroke-miterlimit:10;}</style></defs><title>logo</title><rect class="cls-1" width="300.2" height="89.57"/><path class="cls-2" d="M65.7,11.3q1.6,0,1.8,2.2V26a32.2,32.2,0,0,1,.4,4.4V47.8h9.2a2,2,0,0,1,2.3,1.7v0.2q0,1.6-2.2,1.8H68.7l-2.4.3a2,2,0,0,1-2.2-1.6q0.1-1.6.1-2.4V31.1a25.9,25.9,0,0,0-.4-4.4V13.6a2,2,0,0,1,1.7-2.3h0.2Z"/><path class="cls-2" d="M76.5,21.2q1.5,0,2.1,2a12.7,12.7,0,0,1,1.3,3.6q0.5,0,1,3.9a24.9,24.9,0,0,0,1.7,6.8,32.3,32.3,0,0,1,1,4.1q0,1.5-2,1.8t-2.1-2.5a1.8,1.8,0,0,0-.4-1l-2.3.4h-2q-0.5,2.5-2.2,2.5t-2-2a27.9,27.9,0,0,0,.8-3.6,23.7,23.7,0,0,0,1.2-4.4q0.4,0,.9-6.2,0.2,0,.5-3T76.5,21.2ZM77,31a14.8,14.8,0,0,1-.9,4.2,4.7,4.7,0,0,1-.3,1.3H76q2.1-.1,2.1-0.7a30.3,30.3,0,0,1-1-4.9H77Z"/><path class="cls-2" d="M102.9,11.9q3.7,0,5.6,4.7a7.6,7.6,0,0,1,.2,1.8h0a2,2,0,0,1-1.7,2.3h-0.2q-1.8,0-1.8-2.9t-2-2.1h-1.5q-1.9,0-2.9,5.6-0.3,3.3-.3,6.2v1q0.2,4.8.2,5.2v4.9q0.8,6.7,1.8,8.4a6.6,6.6,0,0,0,2.8,1.5,8.9,8.9,0,0,0,3-2,1.9,1.9,0,0,1,1.8-1.3q1.5,0,1.8,2t-2.6,3.5a7,7,0,0,1-4.7,1.6q-2.1,0-5.4-3a11.6,11.6,0,0,1-1.1-2.5q-0.7-1.1-1.4-8.4V34.2q-0.2-4.8-.2-5.2V27.6a84,84,0,0,1,.5-8.7,9,9,0,0,0,1-2.7,17.8,17.8,0,0,0,1.4-2.6,6.9,6.9,0,0,1,3.7-1.6h1.8Z"/><path class="cls-2" d="M112.3,21.2q1.5,0,2.1,2a12.7,12.7,0,0,1,1.3,3.6q0.5,0,1,3.9a24.9,24.9,0,0,0,1.7,6.8,32.3,32.3,0,0,1,1,4.1q0,1.5-2,1.8t-2.1-2.5a1.8,1.8,0,0,0-.4-1l-2.3.4h-2q-0.5,2.5-2.2,2.5t-2-2a27.9,27.9,0,0,0,.8-3.6,23.7,23.7,0,0,0,1.2-4.4q0.4,0,.9-6.2,0.2,0,.5-3T112.3,21.2Zm0.4,9.9a14.8,14.8,0,0,1-.9,4.2,4.7,4.7,0,0,1-.3,1.3h0.2q2.1-.1,2.1-0.7a30.3,30.3,0,0,1-1-4.9h-0.1Z"/><path class="cls-2" d="M126.2,21.2h1.1a6.2,6.2,0,0,1,4.2,2.2,2.6,2.6,0,0,1,.9,1.7q0,1.5-2,1.8a3.4,3.4,0,0,1-2.4-1.5l-0.9-.4h-0.9l-0.8.7V27q0,0.4,2.6,3.9a7.8,7.8,0,0,0,1.2,2,13.8,13.8,0,0,1,1.6,4.8v1.3q0,3.2-3.5,4.3l-2.2.4H125a3.5,3.5,0,0,1-3-1.6,8.9,8.9,0,0,1-1.1-2.3q-0.3,0-.4-1.1t2-1.8q1.7,0,2.3,2.1a2.8,2.8,0,0,0,.5,1l2-.7V38a14.1,14.1,0,0,0-2-4.4,30.7,30.7,0,0,0-2.4-3.3,5.1,5.1,0,0,1-1.1-2.8v-2q0-2.8,3.5-4.2h1Z"/><path class="cls-2" d="M140.1,21.2q1.5,0,2.1,2a12.7,12.7,0,0,1,1.3,3.6q0.5,0,1,3.9a24.9,24.9,0,0,0,1.7,6.8,32.3,32.3,0,0,1,1,4.1q0,1.5-2,1.8t-2.1-2.5a1.8,1.8,0,0,0-.4-1l-2.3.4h-2q-0.5,2.5-2.2,2.5t-2-2a27.9,27.9,0,0,0,.8-3.6,23.7,23.7,0,0,0,1.2-4.4q0.4,0,.9-6.2,0.2,0,.5-3T140.1,21.2Zm0.4,9.9a14.8,14.8,0,0,1-.9,4.2,4.7,4.7,0,0,1-.3,1.3h0.2q2.1-.1,2.1-0.7a30.3,30.3,0,0,1-1-4.9h-0.1Z"/><path class="cls-2" d="M160.3,20.3H162q4.3,0.6,4.3,1.3t2.9,2.5a14.1,14.1,0,0,1,.9,4.2q0.3,0,.3,2.3v3.8a12,12,0,0,1-2.3,6.5,6.2,6.2,0,0,1-2.2,1.6q-0.9.5-4.8,0.5h-1.1q-1.6,0-1.8-2.2v-17a6,6,0,0,1-.3-1.5Q158,20.3,160.3,20.3Zm1.8,3.8V39.3h1.7q1.7,0,2.8-4.3V29.9q-0.4,0-.7-3.6a3.5,3.5,0,0,0-2.1-1.7A4,4,0,0,0,162.1,24.1Z"/><path class="cls-2" d="M180.6,20.8h1.5a2,2,0,0,1,2.3,1.7v0.2q0,1.6-2.2,1.8l-5.9.8h-0.2a13.2,13.2,0,0,1,.5,4.2v0.8h1.4l1.6,0.3h1.6a2,2,0,0,1,2.3,1.7v0.2q0,1.6-2.2,1.8h-2.4l-1.6-.3h-0.9v5.3h4.6a2.8,2.8,0,0,1,2.7,1.4v0.8q0,1.5-2,1.8l-1.4-.2h-4.4a4.1,4.1,0,0,1-2.8-1.1,4.2,4.2,0,0,1-.5-2.1q0-3.1.1-11.3a23.1,23.1,0,0,0-.5-3.3V23.8a2,2,0,0,1,1.7-2.3h1.7Z"/><path class="cls-2" d="M197.2,11.3q1.6,0,1.8,2.2V26a32.2,32.2,0,0,1,.4,4.4V47.8h9.2a2,2,0,0,1,2.3,1.7v0.2q0,1.6-2.2,1.8h-8.7l-2.4.3a2,2,0,0,1-2.2-1.6q0.1-1.6.1-2.4V31.1a25.9,25.9,0,0,0-.4-4.4V13.6a2,2,0,0,1,1.7-2.3h0.2Z"/><path class="cls-2" d="M209.6,20.8h1.5a2,2,0,0,1,2.3,1.7v0.2q0,1.6-2.2,1.8l-5.9.8h-0.2a13.2,13.2,0,0,1,.5,4.2v0.8h1.4l1.6,0.3h1.6a2,2,0,0,1,2.3,1.7v0.2q0,1.6-2.2,1.8h-2.4l-1.6-.3h-0.9v5.3h4.6a2.8,2.8,0,0,1,2.7,1.4v0.8q0,1.5-2,1.8l-1.4-.2h-4.4a4.1,4.1,0,0,1-2.8-1.1,4.2,4.2,0,0,1-.5-2.1q0-3.1.1-11.3a23.1,23.1,0,0,0-.5-3.3V23.8a2,2,0,0,1,1.7-2.3h1.7Z"/><path class="cls-2" d="M222.5,20.7h1q2.5,0,4.2,3.8a23.2,23.2,0,0,1,1.4,4.9,2.7,2.7,0,0,1,.4,1.6v3.1q0,1.5-2.1,6.4a5.9,5.9,0,0,1-4.8,2.7h-0.8q-1,0-4.3-2.7a12.8,12.8,0,0,1-1.4-5.7v-3q0-.2.2-1.7V28.5a8.2,8.2,0,0,1,1.3-4.9q2.1-2.6,3.5-2.6T222.5,20.7Zm-2.3,7.5v2.6q-0.2,1.6-.2,1.7v2.6a22.1,22.1,0,0,0,.7,2.9l0.7,1.1,1.1,0.3q1.8-.4,1.8-1.4t1.2-3.3,0.3-1.2V31.8a21.1,21.1,0,0,0-.8-3.1q-1-4.1-2.2-4.1h-0.4a2.7,2.7,0,0,0-2,2.6A1.4,1.4,0,0,0,220.2,28.2Z"/><path class="cls-2" d="M64.8,76.1V66.7a0.4,0.4,0,0,1,.1-0.3h2.9A3.6,3.6,0,0,1,70,67a2.5,2.5,0,0,1,.9,2.1,2.5,2.5,0,0,1-2.1,2.7l2.1,3.9V76a0.5,0.5,0,0,1-.2.4l-0.5.2a0.7,0.7,0,0,1-.5-0.5L67.6,72H66v4.1a0.3,0.3,0,0,1-.2.3H65A0.3,0.3,0,0,1,64.8,76.1ZM66,71h1.8a1.8,1.8,0,1,0,0-3.7H66V71Z"/><path class="cls-2" d="M79,76.1V66.7a0.4,0.4,0,0,1,.2-0.3h5.4l0.3,0.2a0.6,0.6,0,0,1,.1.4,0.7,0.7,0,0,1-.1.4l-0.3.2H80.1v3.6h2.5a0.6,0.6,0,0,1,.1.4,0.6,0.6,0,0,1-.1.3H80.1v3.6h4.3l0.3,0.2a0.7,0.7,0,0,1,.1.4,0.6,0.6,0,0,1-.1.4l-0.3.2H79.1A0.4,0.4,0,0,1,79,76.1Z"/><path class="cls-2" d="M92.7,76.1V66.7q0-.4.6-0.4l0.5,0.2,0.4,0.6,3.5,6.8V66.7a0.3,0.3,0,0,1,.2-0.3h0.8a0.3,0.3,0,0,1,.2.3v9.4a0.3,0.3,0,0,1-.2.3H98.3a0.9,0.9,0,0,1-.7-0.5l-3.6-7v7.2a0.3,0.3,0,0,1-.2.3H92.9A0.3,0.3,0,0,1,92.7,76.1Z"/><path class="cls-2" d="M106.6,66.8a0.6,0.6,0,0,1,.1-0.4l0.3-.2h5.7l0.3,0.2a0.6,0.6,0,0,1,.1.4,0.7,0.7,0,0,1-.1.4l-0.3.2h-2.3v8.7a0.3,0.3,0,0,1-.2.3h-0.8a0.3,0.3,0,0,1-.2-0.3V67.4h-2.3l-0.3-.2A0.6,0.6,0,0,1,106.6,66.8Z"/><path class="cls-2" d="M119.4,76.1h0l2.9-9.3a0.8,0.8,0,0,1,1.4,0l2.9,9.3h0a0.4,0.4,0,0,1-.2.3h-0.5a0.4,0.4,0,0,1-.4-0.3l-0.6-2.1h-3.7l-0.6,2.1a0.4,0.4,0,0,1-.4.3h-0.5A0.4,0.4,0,0,1,119.4,76.1Zm2-2.8h3.1L123,68Z"/><path class="cls-2" d="M134.4,76.1V66.7a0.3,0.3,0,0,1,.2-0.3h0.8a0.3,0.3,0,0,1,.2.3v8.8h3.8l0.3,0.2a0.8,0.8,0,0,1,0,.7l-0.3.2h-4.8A0.4,0.4,0,0,1,134.4,76.1Z"/><path class="cls-2" d="M166.3,76.1V66.7a0.3,0.3,0,0,1,.2-0.3h0.8a0.3,0.3,0,0,1,.2.3v4h3.8v-4a0.3,0.3,0,0,1,.2-0.3h0.8a0.3,0.3,0,0,1,.2.3v9.4a0.3,0.3,0,0,1-.2.3h-0.8a0.3,0.3,0,0,1-.2-0.3V71.7h-3.8v4.4a0.3,0.3,0,0,1-.2.3h-0.8A0.3,0.3,0,0,1,166.3,76.1Z"/><path class="cls-2" d="M180.9,73.6V69.4a3,3,0,0,1,.8-2.3,3.6,3.6,0,0,1,4.4,0,3,3,0,0,1,.8,2.3v4.2a3,3,0,0,1-.8,2.3,3.6,3.6,0,0,1-4.4,0A3,3,0,0,1,180.9,73.6Zm1.2,0a1.7,1.7,0,0,0,1.8,2,1.8,1.8,0,0,0,1.4-.5,2.1,2.1,0,0,0,.5-1.5V69.4a2.1,2.1,0,0,0-.5-1.5,1.8,1.8,0,0,0-1.4-.5,1.7,1.7,0,0,0-1.8,2v4.2Z"/><path class="cls-2" d="M195.4,73.6V66.7a0.3,0.3,0,0,1,.2-0.3h0.8a0.3,0.3,0,0,1,.2.3v6.9a1.7,1.7,0,0,0,1.9,2,1.9,1.9,0,0,0,1.4-.5,2,2,0,0,0,.5-1.5V66.7q0-.4.6-0.4h0.4a0.3,0.3,0,0,1,.2.3v6.9a2.9,2.9,0,0,1-.8,2.3,3.7,3.7,0,0,1-4.4,0A2.9,2.9,0,0,1,195.4,73.6Z"/><path class="cls-2" d="M209.5,75.1a0.7,0.7,0,0,1,.2-0.4l0.4-.2,0.3,0.2,0.4,0.4,0.7,0.4,1,0.2a2.1,2.1,0,0,0,1.4-.4,1.6,1.6,0,0,0,.5-1.3,1.7,1.7,0,0,0-.5-1.3,3.1,3.1,0,0,0-1.1-.7l-1.4-.5a2.9,2.9,0,0,1-1.2-.9,2.4,2.4,0,0,1-.5-1.5,2.8,2.8,0,0,1,.3-1.3,2,2,0,0,1,.7-0.8l1-.4h1.1l1.7,0.3a0.9,0.9,0,0,1,.8.7,0.8,0.8,0,0,1-.1.4l-0.4.2-0.6-.3-1.3-.3a2.4,2.4,0,0,0-1.4.4,1.2,1.2,0,0,0-.5,1.1,1.3,1.3,0,0,0,.5,1l1.2,0.6,1.4,0.5a2.9,2.9,0,0,1,1.1,1,2.9,2.9,0,0,1,.5,1.7,2.7,2.7,0,0,1-.8,2.2,3.3,3.3,0,0,1-2.2.7,4,4,0,0,1-2.1-.5A1.4,1.4,0,0,1,209.5,75.1Z"/><path class="cls-2" d="M223.7,76.1V66.7a0.4,0.4,0,0,1,.2-0.3h5.4l0.3,0.2a0.6,0.6,0,0,1,.1.4,0.7,0.7,0,0,1-.1.4l-0.3.2h-4.3v3.6h2.5a0.6,0.6,0,0,1,.1.4,0.6,0.6,0,0,1-.1.3h-2.5v3.6h4.3l0.3,0.2a0.7,0.7,0,0,1,.1.4,0.6,0.6,0,0,1-.1.4l-0.3.2h-5.4A0.4,0.4,0,0,1,223.7,76.1Z"/><line class="cls-3" x1="63.8" y1="59.2" x2="231" y2="59.2"/></svg>